<svg xmlns="http://www.w3.org/2000/svg" width="33.031" height="27.026" viewBox="0 0 33.031 27.026">
  <g id="volume_1_" data-name="volume (1)" transform="translate(0 -42.664)" opacity="0.6">
    <g id="Group_1154" data-name="Group 1154" transform="translate(0 42.664)">
      <g id="Group_1153" data-name="Group 1153">
        <path id="Path_13531" data-name="Path 13531" d="M14.56,42.726a.748.748,0,0,0-.812.144l-7.731,7.3H.751A.75.75,0,0,0,0,50.922v10.51a.75.75,0,0,0,.751.751H6.017l7.731,7.3a.748.748,0,0,0,.515.205.738.738,0,0,0,.3-.062.749.749,0,0,0,.454-.689V43.415A.749.749,0,0,0,14.56,42.726ZM13.513,67.2,6.83,60.887a.75.75,0,0,0-.515-.205H1.5V51.673H6.315a.75.75,0,0,0,.515-.205l6.682-6.311Z" transform="translate(0 -42.664)" fill="#fff"/>
        <path id="Path_13532" data-name="Path 13532" d="M356.326,42.809a.751.751,0,1,0-.881,1.216,14.977,14.977,0,0,1,0,24.309.751.751,0,1,0,.881,1.216,16.478,16.478,0,0,0,0-26.74Z" transform="translate(-330.141 -42.666)" fill="#fff"/>
        <path id="Path_13533" data-name="Path 13533" d="M298.814,106.786a.751.751,0,0,0-.8,1.271,8.99,8.99,0,0,1,0,15.244.751.751,0,0,0,.8,1.271,10.491,10.491,0,0,0,0-17.787Z" transform="translate(-276.714 -102.166)" fill="#fff"/>
        <path id="Path_13534" data-name="Path 13534" d="M256.908,181.484a.751.751,0,1,0-.9,1.2,2.973,2.973,0,0,1,0,4.8.751.751,0,1,0,.9,1.2,4.474,4.474,0,0,0,0-7.209Z" transform="translate(-237.712 -171.575)" fill="#fff"/>
      </g>
    </g>
  </g>
</svg>
