<svg xmlns="http://www.w3.org/2000/svg" width="28.03" height="31.672" viewBox="0 0 28.03 31.672">
  <g id="arrow" transform="translate(-1651.001 -406)">
    <g id="Group_1180" data-name="Group 1180" transform="translate(1651.001 406)">
      <g id="navigate-up-arrow" transform="translate(0 15.695)">
        <path id="Path_13558" data-name="Path 13558" d="M15.4,97.716l12.052,12.052a1.963,1.963,0,0,1-2.776,2.776L14.015,101.88,3.352,112.544a1.963,1.963,0,0,1-2.776-2.776L12.628,97.715a1.963,1.963,0,0,1,2.775,0Z" transform="translate(-0.001 -97.141)" fill="#fff"/>
      </g>
      <g id="navigate-up-arrow-2" data-name="navigate-up-arrow" transform="translate(0 0)">
        <path id="Path_13558-2" data-name="Path 13558" d="M15.4,97.716l12.052,12.052a1.963,1.963,0,0,1-2.776,2.776L14.015,101.88,3.352,112.544a1.963,1.963,0,0,1-2.776-2.776L12.628,97.715a1.963,1.963,0,0,1,2.775,0Z" transform="translate(-0.001 -97.141)" fill="#fff"/>
      </g>
    </g>
  </g>
</svg>
