<svg xmlns="http://www.w3.org/2000/svg" width="57.322" height="57.322" viewBox="0 0 57.322 57.322">
  <g id="minimize" opacity="0.6">
    <path id="Path_13521" data-name="Path 13521" d="M63.673,320.976h4.11L58.3,330.422l2.37,2.38,9.458-9.423v4.053h3.359v-9.815H63.673Zm0,0" transform="translate(-51.774 -282.058)" fill="#fff"/>
    <path id="Path_13522" data-name="Path 13522" d="M327.865,320.976v-3.359h-9.815v9.815h3.359v-4.053l9.458,9.423,2.37-2.38-9.481-9.446Zm0,0" transform="translate(-282.443 -282.058)" fill="#fff"/>
    <path id="Path_13523" data-name="Path 13523" d="M70.129,68.177l-9.458-9.423-2.37,2.38,9.481,9.446h-4.11v3.359h9.815V64.124H70.129Zm0,0" transform="translate(-51.774 -52.176)" fill="#fff"/>
    <path id="Path_13524" data-name="Path 13524" d="M330.867,58.754l-9.458,9.423V64.124h-3.359v9.815h9.815V70.58h-4.11l9.481-9.446Zm0,0" transform="translate(-282.443 -52.176)" fill="#fff"/>
    <path id="Path_13525" data-name="Path 13525" d="M0,0V57.322H57.322V0ZM53.963,53.963H3.359V3.359h50.6Zm0,0" fill="#fff"/>
  </g>
</svg>
