<svg xmlns="http://www.w3.org/2000/svg" width="22" height="19.765" viewBox="0 0 22 19.765">
  <g id="paint-palette-and-brush" transform="translate(0 -16.512)" opacity="0.8">
    <path id="Path_13549" data-name="Path 13549" d="M44.973,205.63a1.8,1.8,0,0,0-1.11-.385,1.779,1.779,0,0,0-1.393.665,1.763,1.763,0,0,0,.283,2.491,1.8,1.8,0,0,0,1.11.385,1.778,1.778,0,0,0,1.393-.666,1.763,1.763,0,0,0-.283-2.491Zm-.35,1.982a.978.978,0,0,1-1.366.152.951.951,0,0,1-.154-1.345.979.979,0,0,1,1.366-.151.95.95,0,0,1,.154,1.344Z" transform="translate(-39.232 -175.959)" fill="#fff"/>
    <path id="Path_13550" data-name="Path 13550" d="M165.724,100.7a1.781,1.781,0,0,0,1.681-1.19,1.748,1.748,0,0,0-.079-1.35,1.789,1.789,0,0,0-2.378-.827,1.764,1.764,0,0,0-.832,2.365A1.8,1.8,0,0,0,165.724,100.7Zm-.92-2.084a.954.954,0,0,1,.494-.549.976.976,0,0,1,1.3.449.942.942,0,0,1,.043.727.956.956,0,0,1-.494.55.97.97,0,0,1-.421.1.98.98,0,0,1-.878-.545A.941.941,0,0,1,164.8,98.614Z" transform="translate(-152.842 -75.187)" fill="#fff"/>
    <path id="Path_13551" data-name="Path 13551" d="M105.921,58.918a1.806,1.806,0,0,0,.4.044,1.771,1.771,0,0,0,1.737-1.376,1.752,1.752,0,0,0-.227-1.332,1.771,1.771,0,0,0-1.115-.788,1.8,1.8,0,0,0-.4-.045,1.769,1.769,0,0,0-1.735,1.376,1.748,1.748,0,0,0,.226,1.332A1.768,1.768,0,0,0,105.921,58.918Zm-.551-1.938a.961.961,0,0,1,.944-.746.992.992,0,0,1,.219.025.964.964,0,0,1,.607.429.944.944,0,0,1,.123.718.975.975,0,0,1-.945.745.994.994,0,0,1-.219-.025.962.962,0,0,1-.607-.428A.942.942,0,0,1,105.371,56.979Z" transform="translate(-97.458 -36.275)" fill="#fff"/>
    <path id="Path_13552" data-name="Path 13552" d="M37.5,78.581a1.765,1.765,0,0,0,.282-2.491,1.793,1.793,0,0,0-2.5-.28A1.763,1.763,0,0,0,35,78.3a1.791,1.791,0,0,0,2.5.28Zm-1.87-.789a.951.951,0,0,1,.153-1.345.981.981,0,0,1,1.367.152A.953.953,0,0,1,37,77.944a.979.979,0,0,1-1.365-.152Z" transform="translate(-32.267 -54.926)" fill="#fff"/>
    <path id="Path_13553" data-name="Path 13553" d="M21.845,19.681a.536.536,0,0,0-.393-.155c-.232,0-.847,0-4.585,3.181l-.227.194a9.965,9.965,0,0,0-9.323-6.389h0a9.778,9.778,0,0,0-4.65,1.337C.946,18.859,0,20.211,0,21.654a3.486,3.486,0,0,0,1.773,3.057c.644.478,1.153.855,1.153,1.682s-.508,1.2-1.152,1.681A3.482,3.482,0,0,0,0,31.131c0,1.443.948,2.8,2.667,3.807a9.786,9.786,0,0,0,4.652,1.339h0a9.938,9.938,0,0,0,7.042-2.891A9.769,9.769,0,0,0,17.284,26.5c.631-.718,1.241-1.431,1.8-2.1.954-1.15,1.688-2.1,2.181-2.82C21.916,20.627,22.2,20.041,21.845,19.681Zm-8.05,13.127a9.13,9.13,0,0,1-6.47,2.656h0c-2.62,0-6.506-1.821-6.507-4.334a2.7,2.7,0,0,1,1.443-2.4,2.79,2.79,0,0,0,1.48-2.333,2.793,2.793,0,0,0-1.481-2.334A2.706,2.706,0,0,1,.812,21.654c0-1.543,1.419-2.608,2.265-3.105a9.054,9.054,0,0,1,4.238-1.225h0a9.153,9.153,0,0,1,8.666,6.145c-1.761,1.538-3.669,3.311-5.089,4.737-2.359.305-2.681,1.878-2.916,3.033-.2.984-.33,1.459-1.089,1.52a.406.406,0,0,0-.123.78,7.437,7.437,0,0,0,2.567.495h0a4.155,4.155,0,0,0,2.41-.681,4.2,4.2,0,0,0,1.627-2.624c.928-.939,1.989-2.071,3.037-3.238A8.964,8.964,0,0,1,13.795,32.809Zm-1.241-2.157a3.056,3.056,0,0,1-3.221,2.57h0a6.091,6.091,0,0,1-1.244-.138A3.27,3.27,0,0,0,8.773,31.4c.223-1.1.434-2.135,2.161-2.382Zm5.608-6.414C16.552,26.155,14.6,28.309,13,29.947l-.248-.25-1.1-1.1c1.454-1.448,3.32-3.174,5.061-4.685h0c.2-.176.4-.35.6-.519a31.212,31.212,0,0,1,3.619-2.8A31.289,31.289,0,0,1,18.162,24.237Z" fill="#fff"/>
  </g>
</svg>
