<svg xmlns="http://www.w3.org/2000/svg" width="30" height="30" viewBox="0 0 30 30">
  <g id="settings" opacity="0.6">
    <path id="Path_13526" data-name="Path 13526" d="M28.456,11.667H25.649a1.078,1.078,0,0,1-.762-1.839l1.984-1.984a1.546,1.546,0,0,0,0-2.185L24.342,3.129a1.582,1.582,0,0,0-2.185,0L20.173,5.113a1.077,1.077,0,0,1-1.839-.762V1.544A1.546,1.546,0,0,0,16.789,0H13.211a1.546,1.546,0,0,0-1.544,1.544V4.351a1.077,1.077,0,0,1-1.839.762L7.843,3.129a1.582,1.582,0,0,0-2.185,0L3.129,5.658a1.546,1.546,0,0,0,0,2.185L5.113,9.827a1.078,1.078,0,0,1-.762,1.839H1.544A1.546,1.546,0,0,0,0,13.211v3.577a1.546,1.546,0,0,0,1.544,1.545H4.351a1.078,1.078,0,0,1,.762,1.839L3.129,22.157a1.546,1.546,0,0,0,0,2.185l2.529,2.529a1.581,1.581,0,0,0,2.185,0l1.984-1.984a1.078,1.078,0,0,1,1.839.762v2.807A1.546,1.546,0,0,0,13.211,30h3.577a1.546,1.546,0,0,0,1.544-1.544V25.649a1.078,1.078,0,0,1,1.839-.762l1.984,1.984a1.582,1.582,0,0,0,2.185,0l2.529-2.529a1.546,1.546,0,0,0,0-2.185l-1.984-1.984a1.078,1.078,0,0,1,.763-1.839h2.807A1.546,1.546,0,0,0,30,16.789V13.211A1.546,1.546,0,0,0,28.456,11.667Zm.433,5.122a.434.434,0,0,1-.433.433H25.649A2.189,2.189,0,0,0,24.1,20.959l1.984,1.984a.434.434,0,0,1,0,.613l-2.529,2.529a.434.434,0,0,1-.613,0L20.959,24.1a2.189,2.189,0,0,0-3.737,1.548v2.807a.434.434,0,0,1-.433.433H13.211a.434.434,0,0,1-.433-.433V25.649a2.155,2.155,0,0,0-1.351-2.022,2.214,2.214,0,0,0-.852-.173,2.158,2.158,0,0,0-1.534.647L7.057,26.085a.434.434,0,0,1-.613,0L3.914,23.556a.434.434,0,0,1,0-.613L5.9,20.958a2.188,2.188,0,0,0-1.548-3.736H1.544a.434.434,0,0,1-.433-.433V13.211a.434.434,0,0,1,.433-.433H4.351A2.189,2.189,0,0,0,5.9,9.041L3.914,7.057a.434.434,0,0,1,0-.613L6.444,3.914a.434.434,0,0,1,.613,0L9.041,5.9a2.189,2.189,0,0,0,3.737-1.547V1.544a.434.434,0,0,1,.433-.433h3.577a.434.434,0,0,1,.434.433V4.351A2.189,2.189,0,0,0,20.959,5.9l1.984-1.984a.434.434,0,0,1,.613,0l2.529,2.529a.434.434,0,0,1,0,.613L24.1,9.042a2.189,2.189,0,0,0,1.548,3.737h2.807a.433.433,0,0,1,.433.433Z" fill="#fff"/>
    <path id="Path_13527" data-name="Path 13527" d="M23,18a5,5,0,1,0,5,5A5.005,5.005,0,0,0,23,18Zm0,8.889A3.889,3.889,0,1,1,26.889,23,3.894,3.894,0,0,1,23,26.889Z" transform="translate(-8 -8)" fill="#fff"/>
  </g>
</svg>
