<svg xmlns="http://www.w3.org/2000/svg" width="38.675" height="28" viewBox="0 0 38.675 28">
  <g id="subtitles" opacity="0.6">
    <path id="Path_13535" data-name="Path 13535" d="M30.744,0H7.931A7.94,7.94,0,0,0,0,7.931V20.069A7.94,7.94,0,0,0,7.931,28H30.744a7.94,7.94,0,0,0,7.931-7.931V7.931A7.94,7.94,0,0,0,30.744,0Zm5.665,20.069a5.672,5.672,0,0,1-5.665,5.665H7.931a5.672,5.672,0,0,1-5.665-5.665V7.931A5.672,5.672,0,0,1,7.931,2.266H30.744a5.672,5.672,0,0,1,5.665,5.665Zm0,0" fill="#fff"/>
    <path id="Path_13536" data-name="Path 13536" d="M203.714,117.316H188.825a1.133,1.133,0,1,0,0,2.266h14.889a1.133,1.133,0,1,0,0-2.266Zm0,0" transform="translate(-173.514 -108.454)" fill="#fff"/>
    <path id="Path_13537" data-name="Path 13537" d="M98.328,119.582h3.454a1.133,1.133,0,1,0,0-2.266H98.328a1.133,1.133,0,0,0,0,2.266Zm0,0" transform="translate(-89.853 -108.454)" fill="#fff"/>
    <path id="Path_13538" data-name="Path 13538" d="M98.328,172.606h14.889a1.133,1.133,0,1,0,0-2.266H98.328a1.133,1.133,0,1,0,0,2.266Zm0,0" transform="translate(-89.853 -157.473)" fill="#fff"/>
    <path id="Path_13539" data-name="Path 13539" d="M343.669,170.34h-3.454a1.133,1.133,0,1,0,0,2.266h3.454a1.133,1.133,0,0,0,0-2.266Zm0,0" transform="translate(-313.469 -157.473)" fill="#fff"/>
    <path id="Path_13540" data-name="Path 13540" d="M203.714,223.359H188.825a1.133,1.133,0,1,0,0,2.266h14.889a1.133,1.133,0,1,0,0-2.266Zm0,0" transform="translate(-173.514 -206.487)" fill="#fff"/>
    <path id="Path_13541" data-name="Path 13541" d="M101.782,223.359H98.328a1.133,1.133,0,1,0,0,2.266h3.454a1.133,1.133,0,0,0,0-2.266Zm0,0" transform="translate(-89.853 -206.487)" fill="#fff"/>
  </g>
</svg>
